# Blender v2.82 (sub 7) OBJ File: 'house.blend'
# www.blender.org
mtllib house.mtl
o Cube.001
v 1.000000 1.993574 -1.000000
v -1.000000 1.993574 -1.000000
v -1.000000 1.993574 1.000000
v 1.000000 1.993574 1.000000
v 1.000000 -0.006426 1.000000
v 0.273285 0.905257 1.000000
v -0.249373 0.912089 1.000000
v -0.252789 1.506485 1.000000
v -1.000000 -0.006426 1.000000
v -1.000000 1.697786 -0.334775
v -1.000000 1.093142 -0.338191
v -1.000000 1.086310 -0.731039
v -1.000000 -0.006426 -1.000000
v -1.000000 0.772031 0.331359
v -1.000000 0.775447 0.754951
v 1.000000 -0.006426 -1.000000
v 1.000000 -0.006426 -0.205033
v 1.000000 -0.006426 0.310753
v 1.000000 1.117054 -0.672965
v 1.000000 1.113638 -0.269869
v 1.000000 1.649960 -0.266453
v 1.000000 1.646544 0.293781
v 1.000000 1.065813 0.293781
v 1.000000 1.072645 0.795943
v 1.000000 0.669549 0.300614
v 1.000000 0.669549 -0.208380
v 0.963058 -0.006426 0.310753
v 0.963058 0.669549 0.300614
v 1.000000 1.653376 0.778863
v 0.886431 1.646544 0.293781
v 0.886431 1.065813 0.293781
v 1.000000 1.639712 -0.662717
v 0.877837 1.639712 -0.662717
v 0.877837 1.117054 -0.672965
v 0.256205 1.509901 1.000000
v -0.252789 1.506485 0.855939
v 0.256205 1.509901 0.855939
v 0.886431 1.653376 0.778863
v 0.886431 1.072645 0.795943
v 0.877837 1.649960 -0.266453
v 0.877837 1.113638 -0.269869
v 0.963058 -0.006426 -0.205033
v 0.963058 0.669549 -0.208380
v -0.249373 0.912089 0.855939
v 0.273285 0.905257 0.855939
v 0.898434 2.588378 -0.585127
v -0.898434 2.588378 -0.585127
v -0.898434 2.588378 0.585127
v 0.898434 2.588378 0.585127
v 1.440736 1.992291 -1.127429
v 1.440736 2.046076 -1.127429
v 1.440736 2.046076 1.127429
v 1.440736 1.992291 1.127429
v -0.504792 1.711450 -0.727623
v -0.504792 1.086310 -0.731039
v -0.947652 1.086310 -0.731039
v -0.947652 1.711450 -0.727623
v -1.440736 1.992291 1.127429
v -1.440736 2.046076 1.127429
v -1.440736 2.046076 -1.127429
v -1.440736 1.992291 -1.127429
v -1.000000 1.711450 -0.727623
v -0.504792 1.093142 -0.338191
v -1.000000 0.232293 0.351854
v -0.504792 0.232293 0.351854
v -0.504792 0.772031 0.331359
v -1.000000 0.232293 0.754951
v -0.947652 1.093142 -0.338191
v -0.504792 0.775447 0.754951
v -0.504792 1.697786 -0.334775
v -0.504792 0.232293 0.754951
v -0.947652 1.697786 -0.334775
v -0.947652 0.775447 0.754951
v -0.947652 0.772031 0.331359
v -0.947652 0.232293 0.351854
v -0.947652 0.232293 0.754951
v 0.898434 2.588378 0.000000
v 0.000000 2.588378 -0.585127
v -0.898434 2.588378 0.000000
v 0.000000 2.588378 0.585127
v 1.440736 2.046076 0.000000
v -1.440736 2.046076 0.000000
v 0.000000 2.046076 -1.127429
v -1.169585 2.317227 0.856278
v -1.169585 2.317227 -0.856278
v 1.169585 2.317227 -0.856278
v 1.169585 2.317227 0.856278
v 0.000000 2.046076 1.127429
v 0.000000 2.317227 0.856278
v 1.169585 2.317227 0.000000
v 0.000000 2.317227 -0.856278
v -1.169585 2.317227 0.000000
v 0.000000 2.588378 0.000000
vt 0.875000 0.500000
vt 0.625000 0.750000
vt 0.625000 0.500000
vt 0.489814 0.906172
vt 0.625000 1.000000
vt 0.375000 1.000000
vt 0.512446 0.167274
vt 0.375000 0.250000
vt 0.472307 0.083580
vt 0.375000 0.599371
vt 0.375000 0.750000
vt 0.125000 0.750000
vt 0.509028 0.661723
vt 0.459497 0.662577
vt 0.625000 0.250000
vt 0.375000 0.500000
vt 0.375000 0.663844
vt 0.459497 0.662577
vt 0.582475 0.722358
vt 0.581621 0.661723
vt 0.581621 0.661723
vt 0.509028 0.661723
vt 0.582048 0.591693
vt 0.580767 0.542160
vt 0.515435 0.540879
vt 0.580767 0.542160
vt 0.515435 0.540879
vt 0.564541 0.842974
vt 0.564114 0.906599
vt 0.564541 0.842974
vt 0.509884 0.724493
vt 0.582475 0.722358
vt 0.509884 0.724493
vt 0.515008 0.591266
vt 0.515008 0.591266
vt 0.582048 0.591693
vt 0.459497 0.598952
vt 0.459497 0.598952
vt 0.375000 0.663844
vt 0.375000 0.599371
vt 0.488960 0.840839
vt 0.488960 0.840839
vt 0.489814 0.906172
vt 0.564114 0.906599
vt 0.589734 0.215953
vt 0.511592 0.216380
vt 0.511592 0.216380
vt 0.589734 0.215953
vt 0.589734 0.215953
vt 0.625000 0.000000
vt 0.511592 0.216380
vt 0.512446 0.167274
vt 0.404840 0.081018
vt 0.404840 0.081018
vt 0.472307 0.083580
vt 0.404840 0.030631
vt 0.375000 0.000000
vt 0.512446 0.167274
vt 0.472734 0.030631
vt 0.472734 0.030631
vt 0.588027 0.166847
vt 0.588027 0.166847
vt 0.404840 0.030631
vt 0.404840 0.081018
vt 0.472307 0.083580
vt 0.472734 0.030631
vt 0.404840 0.030631
vt 0.588027 0.166847
vt 0.875000 0.750000
vt 0.125000 0.500000
vt 0.827949 0.625000
vt 0.750000 0.689874
vt 0.750000 0.625000
vt 0.851475 0.530063
vt 0.875000 0.625000
vt 0.851475 0.625000
vt 0.648525 0.530063
vt 0.750000 0.500000
vt 0.750000 0.530063
vt 0.534805 0.719937
vt 0.397558 0.625000
vt 0.534805 0.625000
vt 0.851475 0.719937
vt 0.750000 0.750000
vt 0.750000 0.719937
vt 0.648525 0.719937
vt 0.625000 0.750000
vt 0.672051 0.689874
vt 0.827949 0.689874
vt 0.534805 0.530063
vt 0.397558 0.500000
vt 0.672051 0.560126
vt 0.672051 0.625000
vt 0.875000 0.500000
vt 0.827949 0.560126
vt 0.750000 0.560126
vt 0.875000 0.750000
vt 0.625000 0.500000
vt 0.397558 0.750000
vt 0.375000 0.500000
vt 0.125000 0.750000
vt 0.125000 0.500000
vt 0.375000 0.750000
vt 0.397558 0.000000
vt 0.397558 0.125000
vt 0.375000 0.250000
vt 0.397558 0.250000
vt 0.397558 0.375000
vt 0.397558 0.875000
vt 0.375000 1.000000
vt 0.375000 0.000000
vt 0.397558 1.000000
vn 0.0000 1.0000 0.0000
vn -0.0000 -0.0000 1.0000
vn -1.0000 -0.0000 0.0000
vn -0.0000 -1.0000 -0.0000
vn 1.0000 0.0000 0.0000
vn 0.0000 0.0000 -1.0000
vn 0.0000 -0.0150 -0.9999
vn 0.0000 -0.0196 0.9998
vn 0.0067 -1.0000 0.0000
vn 0.0000 -0.0294 -0.9996
vn 0.0000 -0.9999 0.0141
vn 0.0000 0.9999 -0.0136
vn 0.0000 0.0064 -1.0000
vn 0.0000 -0.9997 0.0259
vn 0.0000 1.0000 0.0085
vn 0.0000 0.0050 1.0000
vn 0.0131 0.9999 0.0000
vn -0.9996 -0.0282 0.0000
vn 1.0000 0.0057 0.0000
vn 0.0000 0.0055 -1.0000
vn 0.0000 0.9998 -0.0174
vn 0.0000 0.0379 0.9993
vn 0.0000 -0.9998 0.0174
vn 0.0000 -1.0000 0.0081
vn 0.0000 -0.9994 -0.0348
vn 0.0000 0.0056 -1.0000
vn 0.0000 -0.0055 1.0000
vn 0.0000 -0.0379 -0.9993
vn 0.0000 -0.0056 1.0000
vn 0.0000 0.9994 0.0348
vn 0.0000 1.0000 -0.0081
vn 0.0017 1.0000 0.0000
vn -0.7071 0.7071 0.0000
vn 0.0000 0.7071 -0.7071
vn 0.7071 0.7071 0.0000
vn 0.0000 0.7071 0.7071
usemtl Material.001
s 1
f 2/1/1 4/2/1 1/3/1
f 7/4/2 3/5/2 9/6/2
f 11/7/3 13/8/3 14/9/3
f 17/10/4 5/11/4 9/12/4
f 23/13/5 5/11/5 25/14/5
f 2/15/6 16/16/6 13/8/6
f 18/17/7 28/18/7 25/14/7
f 4/2/5 29/19/5 1/3/5
f 23/13/2 22/20/2 30/21/2 31/22/2
f 21/23/5 32/24/5 1/3/5
f 19/25/8 32/24/8 33/26/8 34/27/8
f 35/28/2 5/11/2 4/2/2
f 8/29/9 37/30/9 35/28/9
f 24/31/10 38/32/10 29/19/10
f 22/20/11 29/19/11 38/32/11 30/21/11
f 23/13/12 39/33/12 24/31/12
f 21/23/13 20/34/13 41/35/13 40/36/13
f 32/24/14 21/23/14 40/36/14 33/26/14
f 20/34/15 19/25/15 34/27/15 41/35/15
f 25/14/4 43/37/4 26/38/4
f 17/10/1 27/39/1 18/17/1
f 26/38/16 42/40/16 17/10/16
f 7/4/17 6/41/17 45/42/17 44/43/17
f 35/28/18 45/42/18 6/41/18
f 8/29/19 7/4/19 44/43/19 36/44/19
f 54/45/20 55/46/20 56/47/20 57/48/20
f 2/15/3 62/49/3 3/50/3
f 12/51/21 11/7/21 63/52/21 55/46/21
f 14/9/22 64/53/22 65/54/22 66/55/22
f 67/56/3 13/8/3 9/57/3
f 55/46/23 63/52/23 68/58/23 56/47/23
f 15/59/24 14/9/24 66/55/24 69/60/24
f 10/61/25 62/49/25 54/45/25 70/62/25
f 64/53/1 67/56/1 71/63/1 65/54/1
f 11/7/26 10/61/26 70/62/26 63/52/26
f 67/56/6 15/59/6 69/60/6 71/63/6
f 62/49/27 12/51/27 55/46/27 54/45/27
f 66/55/28 65/54/28 75/64/28 74/65/28
f 71/63/2 69/60/2 73/66/2 76/67/2
f 63/52/29 70/62/29 72/68/29 68/58/29
f 70/62/30 54/45/30 57/48/30 72/68/30
f 65/54/4 71/63/4 76/67/4 75/64/4
f 69/60/31 66/55/31 74/65/31 73/66/31
f 2/1/1 3/69/1 4/2/1
f 9/6/2 5/11/2 6/41/2
f 7/4/2 8/29/2 3/5/2
f 9/6/2 6/41/2 7/4/2
f 15/59/3 9/57/3 3/50/3
f 3/50/3 10/61/3 11/7/3
f 12/51/3 2/15/3 13/8/3
f 15/59/3 3/50/3 11/7/3
f 11/7/3 12/51/3 13/8/3
f 14/9/3 15/59/3 11/7/3
f 9/12/4 13/70/4 16/16/4
f 17/10/4 18/17/32 5/11/4
f 9/12/4 16/16/4 17/10/4
f 16/16/5 1/3/5 19/25/5
f 20/34/5 21/23/5 22/20/5
f 16/16/5 19/25/5 20/34/5
f 26/38/5 17/10/5 16/16/5
f 5/11/5 18/17/5 25/14/5
f 26/38/5 16/16/5 20/34/5
f 25/14/5 26/38/5 20/34/5
f 20/34/5 22/20/5 23/13/5
f 24/31/5 4/2/5 5/11/5
f 25/14/5 20/34/5 23/13/5
f 23/13/5 24/31/5 5/11/5
f 2/15/6 1/3/6 16/16/6
f 18/17/7 27/39/7 28/18/7
f 4/2/5 24/31/5 29/19/5
f 29/19/5 22/20/5 1/3/5
f 1/3/5 22/20/5 21/23/5
f 32/24/5 19/25/5 1/3/5
f 4/2/2 3/5/2 8/29/2
f 35/28/2 6/41/2 5/11/2
f 4/2/2 8/29/2 35/28/2
f 8/29/9 36/44/9 37/30/9
f 24/31/10 39/33/10 38/32/10
f 23/13/12 31/22/12 39/33/12
f 25/14/4 28/18/4 43/37/4
f 17/10/1 42/40/1 27/39/1
f 26/38/16 43/37/16 42/40/16
f 35/28/18 37/30/18 45/42/18
f 2/15/3 12/51/3 62/49/3
f 62/49/3 10/61/3 3/50/3
f 64/53/3 14/9/3 13/8/3
f 9/57/3 15/59/3 67/56/3
f 67/56/3 64/53/3 13/8/3
usemtl Material.002
f 79/71/1 80/72/1 93/73/1
f 85/74/33 82/75/33 92/76/33
f 86/77/34 83/78/34 91/79/34
f 87/80/35 81/81/35 90/82/35
f 84/83/36 88/84/36 89/85/36
f 87/86/36 88/84/36 52/87/36
f 49/88/36 89/85/36 87/86/36
f 48/89/36 89/85/36 80/72/36
f 86/90/35 81/81/35 51/91/35
f 46/92/35 90/82/35 86/90/35
f 49/88/35 90/82/35 77/93/35
f 85/74/34 83/78/34 60/94/34
f 47/95/34 91/79/34 85/74/34
f 46/92/34 91/79/34 78/96/34
f 84/83/33 82/75/33 59/97/33
f 48/89/33 92/76/33 84/83/33
f 47/95/33 92/76/33 79/71/33
f 93/73/1 49/88/1 77/93/1
f 78/96/1 77/93/1 46/92/1
f 47/95/1 93/73/1 78/96/1
f 79/71/1 48/89/1 80/72/1
f 85/74/33 60/94/33 82/75/33
f 86/77/34 51/98/34 83/78/34
f 87/80/35 52/99/35 81/81/35
f 84/83/36 59/97/36 88/84/36
f 87/86/36 89/85/36 88/84/36
f 49/88/36 80/72/36 89/85/36
f 48/89/36 84/83/36 89/85/36
f 86/90/35 90/82/35 81/81/35
f 46/92/35 77/93/35 90/82/35
f 49/88/35 87/80/35 90/82/35
f 85/74/34 91/79/34 83/78/34
f 47/95/34 78/96/34 91/79/34
f 46/92/34 86/77/34 91/79/34
f 84/83/33 92/76/33 82/75/33
f 48/89/33 79/71/33 92/76/33
f 47/95/33 85/74/33 92/76/33
f 93/73/1 80/72/1 49/88/1
f 78/96/1 93/73/1 77/93/1
f 47/95/1 79/71/1 93/73/1
usemtl Material.003
f 42/40/5 28/18/5 27/39/5
f 50/100/4 58/101/4 61/102/4
f 42/40/5 43/37/5 28/18/5
f 50/100/4 53/103/4 58/101/4
usemtl Material.004
f 51/91/5 81/81/5 53/103/5
f 59/104/3 82/105/3 61/106/3
f 60/107/6 83/108/6 50/100/6
f 52/99/2 88/109/2 58/110/2
f 53/103/5 50/100/5 51/91/5
f 81/81/5 52/99/5 53/103/5
f 61/106/3 58/111/3 59/104/3
f 82/105/3 60/107/3 61/106/3
f 50/100/6 61/106/6 60/107/6
f 83/108/6 51/91/6 50/100/6
f 58/110/2 53/103/2 52/99/2
f 88/109/2 59/112/2 58/110/2
usemtl Material.005
f 38/32/5 39/33/5 31/22/5 30/21/5
f 33/26/5 40/36/5 41/35/5 34/27/5
f 37/30/2 36/44/2 44/43/2 45/42/2
f 56/47/3 72/68/3 57/48/3
f 73/66/3 74/65/3 75/64/3 76/67/3
f 56/47/3 68/58/3 72/68/3
