# Blender v2.82 (sub 7) OBJ File: 'tree.blend'
# www.blender.org
mtllib tree.mtl
o Cone
v 0.072364 0.752906 -1.458172
v 0.348184 0.752906 -1.431006
v 0.613404 0.752906 -1.350553
v 0.857833 0.752906 -1.219903
v 1.072076 0.752906 -1.044078
v 1.247901 0.752906 -0.829834
v 1.378551 0.752906 -0.585406
v 1.459005 0.752906 -0.320185
v 1.486170 0.752906 -0.044365
v 1.459005 0.752906 0.231454
v 1.378551 0.752906 0.496675
v 1.247901 0.752906 0.741103
v 1.072076 0.752906 0.955347
v 0.857832 0.752906 1.131172
v 0.613404 0.752906 1.261822
v 0.348183 0.752906 1.342276
v 0.072363 0.752906 1.369441
v -0.203457 0.752906 1.342275
v -0.468677 0.752906 1.261822
v -0.713106 0.752906 1.131172
v -0.927349 0.752906 0.955346
v -1.103174 0.752906 0.741103
v -1.233824 0.752906 0.496674
v 0.072364 2.752906 -0.044365
v -1.314278 0.752906 0.231453
v -1.341443 0.752906 -0.044367
v -1.314277 0.752906 -0.320187
v -1.233823 0.752906 -0.585407
v -1.103173 0.752906 -0.829836
v -0.927347 0.752906 -1.044079
v -0.713104 0.752906 -1.219904
v -0.468675 0.752906 -1.350553
v -0.203454 0.752906 -1.431007
vt 0.250000 0.490000
vt 0.250000 0.250000
vt 0.296822 0.485388
vt 0.341844 0.471731
vt 0.383337 0.449553
vt 0.419706 0.419706
vt 0.449553 0.383337
vt 0.471731 0.341844
vt 0.485388 0.296822
vt 0.490000 0.250000
vt 0.485388 0.203178
vt 0.471731 0.158156
vt 0.449553 0.116663
vt 0.419706 0.080294
vt 0.383337 0.050447
vt 0.341844 0.028269
vt 0.296822 0.014612
vt 0.250000 0.010000
vt 0.203178 0.014612
vt 0.158156 0.028269
vt 0.116663 0.050447
vt 0.080294 0.080294
vt 0.050447 0.116663
vt 0.028269 0.158156
vt 0.014611 0.203179
vt 0.010000 0.250000
vt 0.014612 0.296822
vt 0.028269 0.341844
vt 0.050447 0.383337
vt 0.080295 0.419706
vt 0.116663 0.449553
vt 0.158156 0.471731
vt 0.203179 0.485389
vt 0.750000 0.490000
vt 0.796822 0.485388
vt 0.841844 0.471731
vt 0.883337 0.449553
vt 0.919706 0.419706
vt 0.949553 0.383337
vt 0.971731 0.341844
vt 0.985388 0.296822
vt 0.990000 0.250000
vt 0.985388 0.203178
vt 0.971731 0.158156
vt 0.949553 0.116663
vt 0.919706 0.080294
vt 0.883337 0.050447
vt 0.841844 0.028269
vt 0.796822 0.014612
vt 0.750000 0.010000
vt 0.703178 0.014612
vt 0.658156 0.028269
vt 0.616663 0.050447
vt 0.580294 0.080294
vt 0.550447 0.116663
vt 0.528269 0.158156
vt 0.514611 0.203179
vt 0.510000 0.250000
vt 0.514612 0.296822
vt 0.528269 0.341844
vt 0.550447 0.383337
vt 0.580295 0.419706
vt 0.616663 0.449553
vt 0.658156 0.471731
vt 0.703179 0.485389
vn 0.0802 0.5754 -0.8139
vn 0.2374 0.5754 -0.7827
vn 0.3855 0.5754 -0.7213
vn 0.5189 0.5754 -0.6322
vn 0.6322 0.5754 -0.5189
vn 0.7213 0.5754 -0.3855
vn 0.7827 0.5754 -0.2374
vn 0.8139 0.5754 -0.0802
vn 0.8139 0.5754 0.0802
vn 0.7827 0.5754 0.2374
vn 0.7213 0.5754 0.3855
vn 0.6322 0.5754 0.5189
vn 0.5189 0.5754 0.6322
vn 0.3855 0.5754 0.7213
vn 0.2374 0.5754 0.7827
vn 0.0802 0.5754 0.8139
vn -0.0802 0.5754 0.8139
vn -0.2374 0.5754 0.7827
vn -0.3855 0.5754 0.7213
vn -0.5189 0.5754 0.6322
vn -0.6322 0.5754 0.5189
vn -0.7213 0.5754 0.3855
vn -0.7827 0.5754 0.2374
vn -0.8139 0.5754 0.0802
vn -0.8139 0.5754 -0.0802
vn -0.7827 0.5754 -0.2374
vn -0.7213 0.5754 -0.3855
vn -0.6322 0.5754 -0.5189
vn -0.5189 0.5754 -0.6322
vn -0.3855 0.5754 -0.7213
vn -0.2374 0.5754 -0.7827
vn -0.0802 0.5754 -0.8139
vn 0.0000 -1.0000 -0.0000
usemtl Material.003
s off
f 1/1/1 24/2/1 2/3/1
f 2/3/2 24/2/2 3/4/2
f 3/4/3 24/2/3 4/5/3
f 4/5/4 24/2/4 5/6/4
f 5/6/5 24/2/5 6/7/5
f 6/7/6 24/2/6 7/8/6
f 7/8/7 24/2/7 8/9/7
f 8/9/8 24/2/8 9/10/8
f 9/10/9 24/2/9 10/11/9
f 10/11/10 24/2/10 11/12/10
f 11/12/11 24/2/11 12/13/11
f 12/13/12 24/2/12 13/14/12
f 13/14/13 24/2/13 14/15/13
f 14/15/14 24/2/14 15/16/14
f 15/16/15 24/2/15 16/17/15
f 16/17/16 24/2/16 17/18/16
f 17/18/17 24/2/17 18/19/17
f 18/19/18 24/2/18 19/20/18
f 19/20/19 24/2/19 20/21/19
f 20/21/20 24/2/20 21/22/20
f 21/22/21 24/2/21 22/23/21
f 22/23/22 24/2/22 23/24/22
f 23/24/23 24/2/23 25/25/23
f 25/25/24 24/2/24 26/26/24
f 26/26/25 24/2/25 27/27/25
f 27/27/26 24/2/26 28/28/26
f 28/28/27 24/2/27 29/29/27
f 29/29/28 24/2/28 30/30/28
f 30/30/29 24/2/29 31/31/29
f 31/31/30 24/2/30 32/32/30
f 32/32/31 24/2/31 33/33/31
f 33/33/32 24/2/32 1/1/32
f 1/34/33 2/35/33 3/36/33 4/37/33 5/38/33 6/39/33 7/40/33 8/41/33 9/42/33 10/43/33 11/44/33 12/45/33 13/46/33 14/47/33 15/48/33 16/49/33 17/50/33 18/51/33 19/52/33 20/53/33 21/54/33 22/55/33 23/56/33 25/57/33 26/58/33 27/59/33 28/60/33 29/61/33 30/62/33 31/63/33 32/64/33 33/65/33
o Cone.001
v 0.072364 1.582578 -1.220650
v 0.301845 1.582578 -1.198048
v 0.522508 1.582578 -1.131110
v 0.725872 1.582578 -1.022410
v 0.904122 1.582578 -0.876124
v 1.050408 1.582578 -0.697874
v 1.159109 1.582578 -0.494510
v 1.226046 1.582578 -0.273847
v 1.248648 1.582578 -0.044365
v 1.226046 1.582578 0.185116
v 1.159109 1.582578 0.405779
v 1.050408 1.582578 0.609143
v 0.904122 1.582578 0.787393
v 0.725872 1.582578 0.933679
v 0.522508 1.582578 1.042380
v 0.301845 1.582578 1.109317
v 0.072363 1.582578 1.131919
v -0.157119 1.582578 1.109317
v -0.377781 1.582578 1.042379
v -0.581146 1.582578 0.933679
v -0.759396 1.582578 0.787393
v -0.905681 1.582578 0.609142
v -1.014382 1.582578 0.405778
v 0.072364 3.582578 -0.044365
v -1.081319 1.582578 0.185115
v -1.103921 1.582578 -0.044367
v -1.081318 1.582578 -0.273848
v -1.014381 1.582578 -0.494511
v -0.905680 1.582578 -0.697875
v -0.759394 1.582578 -0.876125
v -0.581144 1.582578 -1.022411
v -0.377779 1.582578 -1.131111
v -0.157116 1.582578 -1.198048
vt 0.250000 0.490000
vt 0.250000 0.250000
vt 0.296822 0.485388
vt 0.341844 0.471731
vt 0.383337 0.449553
vt 0.419706 0.419706
vt 0.449553 0.383337
vt 0.471731 0.341844
vt 0.485388 0.296822
vt 0.490000 0.250000
vt 0.485388 0.203178
vt 0.471731 0.158156
vt 0.449553 0.116663
vt 0.419706 0.080294
vt 0.383337 0.050447
vt 0.341844 0.028269
vt 0.296822 0.014612
vt 0.250000 0.010000
vt 0.203178 0.014612
vt 0.158156 0.028269
vt 0.116663 0.050447
vt 0.080294 0.080294
vt 0.050447 0.116663
vt 0.028269 0.158156
vt 0.014611 0.203179
vt 0.010000 0.250000
vt 0.014612 0.296822
vt 0.028269 0.341844
vt 0.050447 0.383337
vt 0.080295 0.419706
vt 0.116663 0.449553
vt 0.158156 0.471731
vt 0.203179 0.485389
vt 0.750000 0.490000
vt 0.796822 0.485388
vt 0.841844 0.471731
vt 0.883337 0.449553
vt 0.919706 0.419706
vt 0.949553 0.383337
vt 0.971731 0.341844
vt 0.985388 0.296822
vt 0.990000 0.250000
vt 0.985388 0.203178
vt 0.971731 0.158156
vt 0.949553 0.116663
vt 0.919706 0.080294
vt 0.883337 0.050447
vt 0.841844 0.028269
vt 0.796822 0.014612
vt 0.750000 0.010000
vt 0.703178 0.014612
vt 0.658156 0.028269
vt 0.616663 0.050447
vt 0.580294 0.080294
vt 0.550447 0.116663
vt 0.528269 0.158156
vt 0.514611 0.203179
vt 0.510000 0.250000
vt 0.514612 0.296822
vt 0.528269 0.341844
vt 0.550447 0.383337
vt 0.580295 0.419706
vt 0.616663 0.449553
vt 0.658156 0.471731
vt 0.703179 0.485389
vn 0.0846 0.5051 -0.8589
vn 0.2505 0.5051 -0.8259
vn 0.4068 0.5051 -0.7611
vn 0.5475 0.5051 -0.6671
vn 0.6671 0.5051 -0.5475
vn 0.7611 0.5051 -0.4068
vn 0.8259 0.5051 -0.2505
vn 0.8589 0.5051 -0.0846
vn 0.8589 0.5051 0.0846
vn 0.8259 0.5051 0.2505
vn 0.7611 0.5051 0.4068
vn 0.6671 0.5051 0.5475
vn 0.5475 0.5051 0.6671
vn 0.4068 0.5051 0.7611
vn 0.2505 0.5051 0.8259
vn 0.0846 0.5051 0.8589
vn -0.0846 0.5051 0.8589
vn -0.2505 0.5051 0.8259
vn -0.4068 0.5051 0.7611
vn -0.5475 0.5051 0.6671
vn -0.6671 0.5051 0.5475
vn -0.7611 0.5051 0.4068
vn -0.8259 0.5051 0.2505
vn -0.8589 0.5051 0.0846
vn -0.8589 0.5051 -0.0846
vn -0.8259 0.5051 -0.2505
vn -0.7611 0.5051 -0.4068
vn -0.6671 0.5051 -0.5475
vn -0.5475 0.5051 -0.6671
vn -0.4068 0.5051 -0.7611
vn -0.2505 0.5051 -0.8259
vn -0.0846 0.5051 -0.8589
vn 0.0000 -1.0000 0.0000
usemtl Material.002
s off
f 34/66/34 57/67/34 35/68/34
f 35/68/35 57/67/35 36/69/35
f 36/69/36 57/67/36 37/70/36
f 37/70/37 57/67/37 38/71/37
f 38/71/38 57/67/38 39/72/38
f 39/72/39 57/67/39 40/73/39
f 40/73/40 57/67/40 41/74/40
f 41/74/41 57/67/41 42/75/41
f 42/75/42 57/67/42 43/76/42
f 43/76/43 57/67/43 44/77/43
f 44/77/44 57/67/44 45/78/44
f 45/78/45 57/67/45 46/79/45
f 46/79/46 57/67/46 47/80/46
f 47/80/47 57/67/47 48/81/47
f 48/81/48 57/67/48 49/82/48
f 49/82/49 57/67/49 50/83/49
f 50/83/50 57/67/50 51/84/50
f 51/84/51 57/67/51 52/85/51
f 52/85/52 57/67/52 53/86/52
f 53/86/53 57/67/53 54/87/53
f 54/87/54 57/67/54 55/88/54
f 55/88/55 57/67/55 56/89/55
f 56/89/56 57/67/56 58/90/56
f 58/90/57 57/67/57 59/91/57
f 59/91/58 57/67/58 60/92/58
f 60/92/59 57/67/59 61/93/59
f 61/93/60 57/67/60 62/94/60
f 62/94/61 57/67/61 63/95/61
f 63/95/62 57/67/62 64/96/62
f 64/96/63 57/67/63 65/97/63
f 65/97/64 57/67/64 66/98/64
f 66/98/65 57/67/65 34/66/65
f 34/99/66 35/100/66 36/101/66 37/102/66 38/103/66 39/104/66 40/105/66 41/106/66 42/107/66 43/108/66 44/109/66 45/110/66 46/111/66 47/112/66 48/113/66 49/114/66 50/115/66 51/116/66 52/117/66 53/118/66 54/119/66 55/120/66 56/121/66 58/122/66 59/123/66 60/124/66 61/125/66 62/126/66 63/127/66 64/128/66 65/129/66 66/130/66
o Cone.002
v 0.072364 2.178731 -1.180876
v 0.294086 2.178731 -1.159039
v 0.507288 2.178731 -1.094365
v 0.703775 2.178731 -0.989340
v 0.875998 2.178731 -0.848000
v 1.017338 2.178731 -0.675777
v 1.122363 2.178731 -0.479289
v 1.187037 2.178731 -0.266088
v 1.208875 2.178731 -0.044365
v 1.187037 2.178731 0.177357
v 1.122363 2.178731 0.390558
v 1.017338 2.178731 0.587046
v 0.875998 2.178731 0.759269
v 0.703775 2.178731 0.900609
v 0.507287 2.178731 1.005634
v 0.294086 2.178731 1.070308
v 0.072363 2.178731 1.092146
v -0.149359 2.178731 1.070308
v -0.362561 2.178731 1.005634
v -0.559049 2.178731 0.900609
v -0.731272 2.178731 0.759269
v -0.872611 2.178731 0.587046
v -0.977636 2.178731 0.390558
v 0.072364 4.178731 -0.044365
v -1.042310 2.178731 0.177356
v -1.064147 2.178731 -0.044366
v -1.042309 2.178731 -0.266089
v -0.977635 2.178731 -0.479290
v -0.872610 2.178731 -0.675778
v -0.731270 2.178731 -0.848001
v -0.559047 2.178731 -0.989341
v -0.362559 2.178731 -1.094365
v -0.149357 2.178731 -1.159039
vt 0.250000 0.490000
vt 0.250000 0.250000
vt 0.296822 0.485388
vt 0.341844 0.471731
vt 0.383337 0.449553
vt 0.419706 0.419706
vt 0.449553 0.383337
vt 0.471731 0.341844
vt 0.485388 0.296822
vt 0.490000 0.250000
vt 0.485388 0.203178
vt 0.471731 0.158156
vt 0.449553 0.116663
vt 0.419706 0.080294
vt 0.383337 0.050447
vt 0.341844 0.028269
vt 0.296822 0.014612
vt 0.250000 0.010000
vt 0.203178 0.014612
vt 0.158156 0.028269
vt 0.116663 0.050447
vt 0.080294 0.080294
vt 0.050447 0.116663
vt 0.028269 0.158156
vt 0.014611 0.203179
vt 0.010000 0.250000
vt 0.014612 0.296822
vt 0.028269 0.341844
vt 0.050447 0.383337
vt 0.080295 0.419706
vt 0.116663 0.449553
vt 0.158156 0.471731
vt 0.203179 0.485389
vt 0.750000 0.490000
vt 0.796822 0.485388
vt 0.841844 0.471731
vt 0.883337 0.449553
vt 0.919706 0.419706
vt 0.949553 0.383337
vt 0.971731 0.341844
vt 0.985388 0.296822
vt 0.990000 0.250000
vt 0.985388 0.203178
vt 0.971731 0.158156
vt 0.949553 0.116663
vt 0.919706 0.080294
vt 0.883337 0.050447
vt 0.841844 0.028269
vt 0.796822 0.014612
vt 0.750000 0.010000
vt 0.703178 0.014612
vt 0.658156 0.028269
vt 0.616663 0.050447
vt 0.580294 0.080294
vt 0.550447 0.116663
vt 0.528269 0.158156
vt 0.514611 0.203179
vt 0.510000 0.250000
vt 0.514612 0.296822
vt 0.528269 0.341844
vt 0.550447 0.383337
vt 0.580295 0.419706
vt 0.616663 0.449553
vt 0.658156 0.471731
vt 0.703179 0.485389
vn 0.0853 0.4923 -0.8663
vn 0.2527 0.4923 -0.8330
vn 0.4103 0.4923 -0.7677
vn 0.5522 0.4923 -0.6729
vn 0.6729 0.4923 -0.5522
vn 0.7677 0.4923 -0.4103
vn 0.8330 0.4923 -0.2527
vn 0.8663 0.4923 -0.0853
vn 0.8663 0.4923 0.0853
vn 0.8330 0.4923 0.2527
vn 0.7677 0.4923 0.4103
vn 0.6729 0.4923 0.5522
vn 0.5522 0.4923 0.6729
vn 0.4103 0.4923 0.7677
vn 0.2527 0.4923 0.8330
vn 0.0853 0.4923 0.8663
vn -0.0853 0.4923 0.8663
vn -0.2527 0.4923 0.8330
vn -0.4103 0.4923 0.7677
vn -0.5522 0.4923 0.6729
vn -0.6729 0.4923 0.5522
vn -0.7677 0.4923 0.4103
vn -0.8330 0.4923 0.2527
vn -0.8663 0.4923 0.0853
vn -0.8663 0.4923 -0.0853
vn -0.8330 0.4923 -0.2527
vn -0.7677 0.4923 -0.4103
vn -0.6729 0.4923 -0.5522
vn -0.5522 0.4923 -0.6729
vn -0.4103 0.4923 -0.7677
vn -0.2527 0.4923 -0.8330
vn -0.0853 0.4923 -0.8663
vn 0.0000 -1.0000 -0.0000
usemtl Material.001
s off
f 67/131/67 90/132/67 68/133/67
f 68/133/68 90/132/68 69/134/68
f 69/134/69 90/132/69 70/135/69
f 70/135/70 90/132/70 71/136/70
f 71/136/71 90/132/71 72/137/71
f 72/137/72 90/132/72 73/138/72
f 73/138/73 90/132/73 74/139/73
f 74/139/74 90/132/74 75/140/74
f 75/140/75 90/132/75 76/141/75
f 76/141/76 90/132/76 77/142/76
f 77/142/77 90/132/77 78/143/77
f 78/143/78 90/132/78 79/144/78
f 79/144/79 90/132/79 80/145/79
f 80/145/80 90/132/80 81/146/80
f 81/146/81 90/132/81 82/147/81
f 82/147/82 90/132/82 83/148/82
f 83/148/83 90/132/83 84/149/83
f 84/149/84 90/132/84 85/150/84
f 85/150/85 90/132/85 86/151/85
f 86/151/86 90/132/86 87/152/86
f 87/152/87 90/132/87 88/153/87
f 88/153/88 90/132/88 89/154/88
f 89/154/89 90/132/89 91/155/89
f 91/155/90 90/132/90 92/156/90
f 92/156/91 90/132/91 93/157/91
f 93/157/92 90/132/92 94/158/92
f 94/158/93 90/132/93 95/159/93
f 95/159/94 90/132/94 96/160/94
f 96/160/95 90/132/95 97/161/95
f 97/161/96 90/132/96 98/162/96
f 98/162/97 90/132/97 99/163/97
f 99/163/98 90/132/98 67/131/98
f 67/164/99 68/165/99 69/166/99 70/167/99 71/168/99 72/169/99 73/170/99 74/171/99 75/172/99 76/173/99 77/174/99 78/175/99 79/176/99 80/177/99 81/178/99 82/179/99 83/180/99 84/181/99 85/182/99 86/183/99 87/184/99 88/185/99 89/186/99 91/187/99 92/188/99 93/189/99 94/190/99 95/191/99 96/192/99 97/193/99 98/194/99 99/195/99
o Cylinder
v 0.034802 -0.309446 -0.321999
v 0.034802 1.229995 -0.321999
v 0.083618 -0.309446 -0.327804
v 0.083618 1.229995 -0.327804
v 0.132593 -0.309446 -0.324087
v 0.132593 1.229995 -0.324087
v 0.179843 -0.309446 -0.310990
v 0.179843 1.229995 -0.310990
v 0.223554 -0.309446 -0.289017
v 0.223554 1.229995 -0.289017
v 0.262044 -0.309446 -0.259013
v 0.262044 1.229995 -0.259013
v 0.293836 -0.309446 -0.222129
v 0.293836 1.229995 -0.222129
v 0.317707 -0.309446 -0.179785
v 0.317707 1.229995 -0.179785
v 0.332741 -0.309446 -0.133606
v 0.332741 1.229995 -0.133606
v 0.338358 -0.309446 -0.085368
v 0.338358 1.229995 -0.085368
v 0.334344 -0.309446 -0.036924
v 0.334344 1.229995 -0.036924
v 0.320853 -0.309446 0.009864
v 0.320853 1.229995 0.009864
v 0.298403 -0.309446 0.053197
v 0.298403 1.229995 0.053197
v 0.267857 -0.309446 0.091412
v 0.267857 1.229995 0.091412
v 0.230388 -0.309446 0.123038
v 0.230388 1.229995 0.123038
v 0.187437 -0.309446 0.146861
v 0.187437 1.229995 0.146861
v 0.140655 -0.309446 0.161966
v 0.140655 1.229995 0.161966
v 0.091838 -0.309446 0.167771
v 0.091838 1.229995 0.167771
v 0.042864 -0.309446 0.164053
v 0.042864 1.229995 0.164053
v -0.004386 -0.309446 0.150957
v -0.004386 1.229995 0.150957
v -0.048097 -0.309446 0.128984
v -0.048097 1.229995 0.128984
v -0.086587 -0.309446 0.098979
v -0.086587 1.229995 0.098979
v -0.118379 -0.309446 0.062096
v -0.118379 1.229995 0.062096
v -0.142251 -0.309446 0.019751
v -0.142251 1.229995 0.019751
v -0.157284 -0.309446 -0.026428
v -0.157284 1.229995 -0.026428
v -0.162901 -0.309446 -0.074666
v -0.162901 1.229995 -0.074666
v -0.158887 -0.309446 -0.123110
v -0.158887 1.229995 -0.123110
v -0.145396 -0.309446 -0.169897
v -0.145396 1.229995 -0.169897
v -0.122946 -0.309446 -0.213231
v -0.122946 1.229995 -0.213231
v -0.092399 -0.309446 -0.251445
v -0.092399 1.229995 -0.251445
v -0.054931 -0.309446 -0.283072
v -0.054931 1.229995 -0.283072
v -0.011980 -0.309446 -0.306895
v -0.011980 1.229995 -0.306895
vt 1.000000 1.000000
vt 0.968750 0.500000
vt 1.000000 0.500000
vt 0.968750 1.000000
vt 0.937500 0.500000
vt 0.937500 1.000000
vt 0.906250 0.500000
vt 0.906250 1.000000
vt 0.875000 0.500000
vt 0.875000 1.000000
vt 0.843750 0.500000
vt 0.843750 1.000000
vt 0.812500 0.500000
vt 0.812500 1.000000
vt 0.781250 0.500000
vt 0.781250 1.000000
vt 0.750000 0.500000
vt 0.750000 1.000000
vt 0.718750 0.500000
vt 0.718750 1.000000
vt 0.687500 0.500000
vt 0.687500 1.000000
vt 0.656250 0.500000
vt 0.656250 1.000000
vt 0.625000 0.500000
vt 0.625000 1.000000
vt 0.593750 0.500000
vt 0.593750 1.000000
vt 0.562500 0.500000
vt 0.562500 1.000000
vt 0.531250 0.500000
vt 0.531250 1.000000
vt 0.500000 0.500000
vt 0.500000 1.000000
vt 0.468750 0.500000
vt 0.468750 1.000000
vt 0.437500 0.500000
vt 0.437500 1.000000
vt 0.406250 0.500000
vt 0.406250 1.000000
vt 0.375000 0.500000
vt 0.375000 1.000000
vt 0.343750 0.500000
vt 0.343750 1.000000
vt 0.312500 0.500000
vt 0.312500 1.000000
vt 0.281250 0.500000
vt 0.281250 1.000000
vt 0.250000 0.500000
vt 0.250000 1.000000
vt 0.218750 0.500000
vt 0.218750 1.000000
vt 0.187500 0.500000
vt 0.187500 1.000000
vt 0.156250 0.500000
vt 0.156250 1.000000
vt 0.125000 0.500000
vt 0.125000 1.000000
vt 0.093750 0.500000
vt 0.093750 1.000000
vt 0.062500 0.500000
vt 0.028269 0.341844
vt 0.158156 0.028269
vt 0.471731 0.158156
vt 0.062500 1.000000
vt 0.031250 0.500000
vt 0.031250 1.000000
vt 0.000000 0.500000
vt 0.985388 0.296822
vt 0.796822 0.014612
vt 0.514611 0.203179
vt 0.341844 0.471731
vt 0.296822 0.485388
vt 0.250000 0.490000
vt 0.203179 0.485389
vt 0.158156 0.471731
vt 0.116663 0.449553
vt 0.080295 0.419706
vt 0.050447 0.383337
vt 0.014612 0.296822
vt 0.010000 0.250000
vt 0.014611 0.203179
vt 0.028269 0.158156
vt 0.050447 0.116663
vt 0.080294 0.080294
vt 0.116663 0.050447
vt 0.203178 0.014612
vt 0.250000 0.010000
vt 0.296822 0.014612
vt 0.341844 0.028269
vt 0.383337 0.050447
vt 0.419706 0.080294
vt 0.449553 0.116663
vt 0.485388 0.203178
vt 0.490000 0.250000
vt 0.485388 0.296822
vt 0.471731 0.341844
vt 0.449553 0.383337
vt 0.419706 0.419706
vt 0.383337 0.449553
vt 0.000000 1.000000
vt 0.703179 0.485389
vt 0.750000 0.490000
vt 0.796822 0.485388
vt 0.841844 0.471731
vt 0.883337 0.449553
vt 0.919706 0.419706
vt 0.949553 0.383337
vt 0.971731 0.341844
vt 0.990000 0.250000
vt 0.985388 0.203178
vt 0.971731 0.158156
vt 0.949553 0.116663
vt 0.919706 0.080294
vt 0.883337 0.050447
vt 0.841844 0.028269
vt 0.750000 0.010000
vt 0.703178 0.014612
vt 0.658156 0.028269
vt 0.616663 0.050447
vt 0.580294 0.080294
vt 0.550447 0.116663
vt 0.528269 0.158156
vt 0.510000 0.250000
vt 0.514612 0.296822
vt 0.528269 0.341844
vt 0.550447 0.383337
vt 0.580295 0.419706
vt 0.616663 0.449553
vt 0.658156 0.471731
vn -0.1181 0.0000 -0.9930
vn 0.0757 0.0000 -0.9971
vn 0.2671 0.0000 -0.9637
vn 0.4491 0.0000 -0.8935
vn 0.6148 0.0000 -0.7887
vn 0.7575 0.0000 -0.6529
vn 0.8711 0.0000 -0.4911
vn 0.9509 0.0000 -0.3096
vn 0.9933 0.0000 -0.1157
vn 0.9966 0.0000 0.0826
vn 0.9609 0.0000 0.2771
vn 0.8879 0.0000 0.4600
vn 0.7811 0.0000 0.6244
vn 0.6450 0.0000 0.7642
vn 0.4850 0.0000 0.8745
vn 0.3072 0.0000 0.9516
vn 0.1181 0.0000 0.9930
vn -0.0757 0.0000 0.9971
vn -0.2671 0.0000 0.9637
vn -0.4491 0.0000 0.8935
vn -0.6148 0.0000 0.7887
vn -0.7575 0.0000 0.6529
vn -0.8711 0.0000 0.4911
vn -0.9509 0.0000 0.3096
vn -0.9933 0.0000 0.1157
vn -0.9966 0.0000 -0.0826
vn -0.9609 0.0000 -0.2771
vn -0.8879 0.0000 -0.4600
vn -0.7811 0.0000 -0.6244
vn -0.6450 0.0000 -0.7642
vn 0.0000 1.0000 -0.0000
vn -0.4850 0.0000 -0.8745
vn -0.3072 0.0000 -0.9516
vn 0.0000 -1.0000 0.0000
usemtl Material.004
s off
f 101/196/100 102/197/100 100/198/100
f 103/199/101 104/200/101 102/197/101
f 105/201/102 106/202/102 104/200/102
f 107/203/103 108/204/103 106/202/103
f 109/205/104 110/206/104 108/204/104
f 111/207/105 112/208/105 110/206/105
f 113/209/106 114/210/106 112/208/106
f 115/211/107 116/212/107 114/210/107
f 117/213/108 118/214/108 116/212/108
f 119/215/109 120/216/109 118/214/109
f 121/217/110 122/218/110 120/216/110
f 123/219/111 124/220/111 122/218/111
f 125/221/112 126/222/112 124/220/112
f 127/223/113 128/224/113 126/222/113
f 129/225/114 130/226/114 128/224/114
f 131/227/115 132/228/115 130/226/115
f 133/229/116 134/230/116 132/228/116
f 135/231/117 136/232/117 134/230/117
f 137/233/118 138/234/118 136/232/118
f 139/235/119 140/236/119 138/234/119
f 141/237/120 142/238/120 140/236/120
f 143/239/121 144/240/121 142/238/121
f 145/241/122 146/242/122 144/240/122
f 147/243/123 148/244/123 146/242/123
f 149/245/124 150/246/124 148/244/124
f 151/247/125 152/248/125 150/246/125
f 153/249/126 154/250/126 152/248/126
f 155/251/127 156/252/127 154/250/127
f 157/253/128 158/254/128 156/252/128
f 159/255/129 160/256/129 158/254/129
f 153/257/130 137/258/130 121/259/130
f 161/260/131 162/261/131 160/256/131
f 163/262/132 100/263/132 162/261/132
f 114/264/133 130/265/133 146/266/133
f 101/196/100 103/199/100 102/197/100
f 103/199/101 105/201/101 104/200/101
f 105/201/102 107/203/102 106/202/102
f 107/203/103 109/205/103 108/204/103
f 109/205/104 111/207/104 110/206/104
f 111/207/105 113/209/105 112/208/105
f 113/209/106 115/211/106 114/210/106
f 115/211/107 117/213/107 116/212/107
f 117/213/108 119/215/108 118/214/108
f 119/215/109 121/217/109 120/216/109
f 121/217/110 123/219/110 122/218/110
f 123/219/111 125/221/111 124/220/111
f 125/221/112 127/223/112 126/222/112
f 127/223/113 129/225/113 128/224/113
f 129/225/114 131/227/114 130/226/114
f 131/227/115 133/229/115 132/228/115
f 133/229/116 135/231/116 134/230/116
f 135/231/117 137/233/117 136/232/117
f 137/233/118 139/235/118 138/234/118
f 139/235/119 141/237/119 140/236/119
f 141/237/120 143/239/120 142/238/120
f 143/239/121 145/241/121 144/240/121
f 145/241/122 147/243/122 146/242/122
f 147/243/123 149/245/123 148/244/123
f 149/245/124 151/247/124 150/246/124
f 151/247/125 153/249/125 152/248/125
f 153/249/126 155/251/126 154/250/126
f 155/251/127 157/253/127 156/252/127
f 157/253/128 159/255/128 158/254/128
f 159/255/129 161/260/129 160/256/129
f 105/267/130 103/268/130 101/269/130
f 101/269/130 163/270/130 105/267/130
f 163/270/130 161/271/130 105/267/130
f 161/271/130 159/272/130 157/273/130
f 157/273/130 155/274/130 153/257/130
f 153/257/130 151/275/130 149/276/130
f 149/276/130 147/277/130 153/257/130
f 147/277/130 145/278/130 153/257/130
f 145/278/130 143/279/130 141/280/130
f 141/280/130 139/281/130 137/258/130
f 137/258/130 135/282/130 133/283/130
f 133/283/130 131/284/130 129/285/130
f 129/285/130 127/286/130 125/287/130
f 125/287/130 123/288/130 121/259/130
f 121/259/130 119/289/130 117/290/130
f 117/290/130 115/291/130 121/259/130
f 115/291/130 113/292/130 121/259/130
f 113/292/130 111/293/130 109/294/130
f 109/294/130 107/295/130 105/267/130
f 161/271/130 157/273/130 105/267/130
f 157/273/130 153/257/130 105/267/130
f 145/278/130 141/280/130 137/258/130
f 137/258/130 133/283/130 121/259/130
f 133/283/130 129/285/130 121/259/130
f 129/285/130 125/287/130 121/259/130
f 113/292/130 109/294/130 121/259/130
f 109/294/130 105/267/130 121/259/130
f 153/257/130 145/278/130 137/258/130
f 105/267/130 153/257/130 121/259/130
f 161/260/131 163/262/131 162/261/131
f 163/262/132 101/296/132 100/263/132
f 162/297/133 100/298/133 102/299/133
f 102/299/133 104/300/133 106/301/133
f 106/301/133 108/302/133 110/303/133
f 110/303/133 112/304/133 106/301/133
f 112/304/133 114/264/133 106/301/133
f 114/264/133 116/305/133 118/306/133
f 118/306/133 120/307/133 114/264/133
f 120/307/133 122/308/133 114/264/133
f 122/308/133 124/309/133 130/265/133
f 124/309/133 126/310/133 130/265/133
f 126/310/133 128/311/133 130/265/133
f 130/265/133 132/312/133 134/313/133
f 134/313/133 136/314/133 138/315/133
f 138/315/133 140/316/133 146/266/133
f 140/316/133 142/317/133 146/266/133
f 142/317/133 144/318/133 146/266/133
f 146/266/133 148/319/133 150/320/133
f 150/320/133 152/321/133 154/322/133
f 154/322/133 156/323/133 158/324/133
f 158/324/133 160/325/133 162/297/133
f 162/297/133 102/299/133 106/301/133
f 130/265/133 134/313/133 146/266/133
f 134/313/133 138/315/133 146/266/133
f 146/266/133 150/320/133 162/297/133
f 150/320/133 154/322/133 162/297/133
f 154/322/133 158/324/133 162/297/133
f 162/297/133 106/301/133 114/264/133
f 114/264/133 122/308/133 130/265/133
f 162/297/133 114/264/133 146/266/133
